<svg xmlns="http://www.w3.org/2000/svg" viewBox="0 0 1200 131" width="1200" height="131" role="img" aria-label="Let’s build something together."><title>Let’s build something together.</title><defs><path id="t-C" d="M403.4 -8.6Q322.9 -8.6 257.3 17.2Q191.7 43.1 144.2 92Q96.8 140.9 71.6 209.8Q46.5 278.8 46.5 364.3Q46.5 450.5 72 519.3Q97.5 588.1 144.6 636.7Q191.7 685.2 257.3 711.1Q322.9 736.9 403.4 736.9Q492.2 736.9 561.9 706.2Q631.5 675.4 675.8 619.5Q720.1 563.7 731.5 487.1H639.7Q629.6 537.7 598 576Q566.3 614.3 517.1 636.3Q467.9 658.2 403.4 658.2Q322.2 658.2 263.3 623Q204.3 587.7 172.2 522Q140 456.2 140 364.3Q140 295.9 158.5 241.1Q177 186.4 211.2 148.3Q245.4 110.3 293.9 90.2Q342.4 70.1 403.4 70.1Q467.2 70.1 517 91.7Q566.7 113.3 598.7 152.6Q630.6 192 639.7 244.3H731.5Q722.2 167.7 677.9 110.6Q633.7 53.6 563.3 22.5Q492.9 -8.6 403.4 -8.6Z"/><path id="t-o" d="M298.5 -8.6Q241 -8.6 194.5 10.2Q147.9 29.1 114 64.9Q80.1 100.7 61.8 150.4Q43.5 200.2 43.5 261.7Q43.5 342.6 74.6 403.9Q105.8 465.2 163.1 499.6Q220.5 534.1 298.5 534.1Q355.3 534.1 401.9 515.3Q448.4 496.4 481.7 460.6Q514.9 424.8 533.2 374.9Q551.5 324.9 551.5 262.4Q551.5 182.5 520.7 121.4Q489.9 60.3 433 25.8Q376.2 -8.6 298.5 -8.6ZM297.8 64.1Q347.8 64.1 385.5 87.4Q423.2 110.7 444 155.3Q464.7 199.9 464.7 262.4Q464.7 309.1 453.3 345.9Q441.8 382.7 420 408.9Q398.2 435 367.6 448.5Q337 462 298.5 462Q248.5 462 210.5 438.4Q172.5 414.8 151.4 370.3Q130.2 325.9 130.2 261.7Q130.2 215.7 141.7 178.9Q153.2 142.1 175.3 116.6Q197.5 91.2 228.5 77.7Q259.6 64.1 297.8 64.1Z"/><path id="t-n" d="M75.3 0V525.5H156.4L160 417.3H165.2Q189.3 475.5 239 504.8Q288.7 534.1 348.2 534.1Q388.9 534.1 423.4 521.8Q457.9 509.4 483.2 482.7Q508.5 456.1 522.6 413.6Q536.8 371.1 536.8 310.4V0H451.4V293.1Q451.4 351 437.2 388.5Q423.1 426.1 394.1 444.2Q365.1 462.4 319.6 462.4Q271.1 462.4 235.1 438.8Q199.2 415.2 179.6 375.3Q160 335.5 160 284.7V0Z"/><path id="t-t" d="M235.7 0Q180 0 151.2 26.9Q122.4 53.8 122.4 114.3V455.5H20.4V525.5H122.4V681.6L207.1 692.8V525.5H328.1V455.5H207.8V128.3Q207.8 98.4 221.5 85.6Q235.3 72.8 262.6 72.8H329.4V0Z"/><path id="t-a" d="M264.1 -8.6Q215.8 -8.6 175.7 10Q135.5 28.7 106.5 63.7Q77.5 98.6 62 149.1Q46.5 199.5 46.5 263.1Q46.5 348.3 74 409.2Q101.5 470.2 150.5 502.5Q199.5 534.8 264.1 534.8Q309.4 534.8 346.2 520.4Q383 505.9 409 480.1Q434.9 454.3 446.9 419.1H452.1L455.7 525.5H536.2V0H455.7L452.1 107.8H446.9Q428.5 55.5 380.3 23.4Q332.2 -8.6 264.1 -8.6ZM291.9 62.8Q343.1 62.8 378.6 86.4Q414 110 432.4 148.4Q450.8 186.8 450.8 231.9V295Q450.8 340.7 432.1 379.2Q413.4 417.8 378.1 441Q342.8 464.1 293.5 464.1Q243.8 464.1 208.1 440.2Q172.4 416.3 153.1 371.5Q133.9 326.8 133.9 263.1Q133.9 201.1 152.8 155.8Q171.7 110.5 207.1 86.7Q242.5 62.8 291.9 62.8Z"/><path id="t-c" d="M295.8 -8.6Q239 -8.6 192.5 10.7Q145.9 30 112.5 65.8Q79.1 101.6 61.3 151.2Q43.5 200.8 43.5 262Q43.5 323.3 61.5 373.2Q79.4 423.2 113.3 459.1Q147.2 495.1 194.4 514.6Q241.6 534.1 299.5 534.1Q360.4 534.1 408.9 511.8Q457.3 489.4 487.5 449Q517.8 408.5 523.6 355.2H440.5Q432.7 390.2 412.2 413.8Q391.8 437.4 362 449.6Q332.3 461.7 296.8 461.7Q257 461.7 226.3 447.2Q195.5 432.7 173.9 406.3Q152.2 379.9 141 343.3Q129.9 306.8 129.9 261.7Q129.9 198.9 150.6 154.8Q171.4 110.7 208.8 87.2Q246.1 63.8 295.8 63.8Q336.3 63.8 367 78.1Q397.8 92.4 417.7 117.9Q437.7 143.4 443.1 177.8H526.7Q520.5 121.4 489.3 79.3Q458 37.1 408.6 14.3Q359.2 -8.6 295.8 -8.6Z"/><path id="d-L" d="M68.4 0V729H133.7V39.9L111.9 58.3H566.6V0Z"/><path id="d-e" d="M329 -8Q241 -8 175.5 25Q110 58 74 118Q38 178 38 259Q38 341 73 401.5Q108 462 173 495.5Q238 529 326 529Q415 529 478.5 495.5Q542 462 574.5 400Q607 338 602 251H102Q104 185 132 138.5Q160 92 211 67Q262 42 330 42Q407 42 463.5 73Q520 104 534 156H596Q587 107 549.5 70Q512 33 455 12.5Q398 -8 329 -8ZM102 290 97 300H544L537 290Q538 351 511.5 393Q485 435 437.5 457Q390 479 326 479Q260 479 211 455.5Q162 432 134.5 389.5Q107 347 102 290Z"/><path id="d-t" d="M235.6 0Q179.3 0 151.9 27.1Q124.4 54.3 124.4 110.4V469.9H10V520.9H124.4V679.3L187.1 692.9V520.9H329.9V469.9H187.1V122.4Q187.1 88.6 201.6 73Q216 57.4 249.3 57.4H329.9V0Z"/><path id="d-quoteright" d="M19 536Q51.4 572.3 70.4 609.7Q89.4 647.1 91.7 675.6L98 673Q96.1 669.4 90.1 665.9Q84 662.3 76.1 662.3Q57.4 662.3 47.4 672.5Q37.3 682.7 37.3 697.7Q37.3 715.1 49.2 725Q61.1 734.9 79.3 734.9Q99.1 734.9 111.6 722.8Q124 710.7 124 684.4Q124 664.7 117.9 643.4Q111.7 622 101.6 601.3Q91.4 580.6 79.9 563.5Q68.3 546.4 57.4 536Z"/><path id="d-s" d="M279.6 -10Q220.3 -10 173.3 2.1Q126.3 14.1 93.9 36.9Q61.4 59.6 43.9 91.4Q26.3 123.3 25.7 162H88.3Q88.7 123.3 112.1 95.4Q135.6 67.6 178.4 52.1Q221.3 36.7 280.6 36.7Q361 36.7 410.2 60Q459.4 83.3 459.4 135.7Q459.4 173.1 442.3 193.5Q425.1 213.9 384.8 223.8Q344.4 233.7 274.4 241Q195.6 249.3 144.5 264.3Q93.4 279.3 69 307.6Q44.6 336 44.6 383.4Q44.6 430 73.4 462.9Q102.3 495.9 154.5 513.4Q206.7 530.9 276.7 530.9Q350.7 530.9 400.6 510.9Q450.6 490.9 478.2 454.8Q505.9 418.7 509.3 368.4H447.9Q444.9 409.3 422 434.8Q399.1 460.3 361.7 472.2Q324.3 484.1 276.6 484.1Q203.7 484.1 155.3 461Q106.9 437.9 106.9 387Q106.9 355 125.5 336.8Q144.1 318.6 183.6 308.6Q223.1 298.7 284.7 292.1Q367 284.1 419.6 269.5Q472.1 254.9 497.6 225Q523 195.1 523 140.3Q523 95.6 496.4 61.4Q469.9 27.3 415.6 8.6Q361.4 -10 279.6 -10Z"/><path id="d-b" d="M358.9 -8.9Q301.8 -8.9 256.1 6.3Q210.4 21.4 178.1 48.9Q145.7 76.3 129.5 112.1H125.6L122.6 0H62.7V729H126V399.6H130.4Q154.7 459 217 494.5Q279.3 530 358.7 530Q417.9 530 466 510.9Q514.2 491.8 549 456.1Q583.9 420.4 602.4 371.2Q621 321.9 621 260.1Q621 177.6 588 117.1Q555 56.7 496 23.9Q437 -8.9 358.9 -8.9ZM344.8 43.9Q408.5 43.9 456.3 69.4Q504 94.9 530.4 143.3Q556.9 191.8 556.9 260.1Q556.9 309.7 542 349.6Q527.1 389.6 498.9 418.2Q470.6 446.9 431.7 462.1Q392.8 477.3 345.3 477.3Q276.1 477.3 227 450Q178 422.7 152 378Q126 333.3 126 282.4V229.4Q126 181.1 152 138.9Q178.1 96.7 227.3 70.3Q276.6 43.9 344.8 43.9Z"/><path id="d-u" d="M279 -8.3Q212.3 -8.3 161 15.3Q109.7 38.9 80.3 91.9Q50.9 144.9 50.9 233.7V520.9H114.1V244.6Q114.1 175 134.5 130.9Q154.9 86.9 195.1 65.6Q235.3 44.4 294.6 44.4Q359.7 44.4 408.7 71.9Q457.7 99.3 485.8 148.6Q513.9 197.9 513.9 263.6V520.9H577.1V0H516L513.9 122.7H508.3Q478.4 60.4 416.8 26.1Q355.1 -8.3 279 -8.3Z"/><path id="d-i" d="M62.7 0V520.9H126V0ZM94.9 619.4Q74.2 619.4 62.4 630.5Q50.6 641.6 50.6 658Q50.6 676.1 62.9 686.4Q75.2 696.6 94.9 696.6Q115.5 696.6 127.3 686Q139.1 675.4 139.1 658Q139.1 640.7 126.8 630.1Q114.5 619.4 94.9 619.4Z"/><path id="d-l" d="M62.7 0V729H126V0Z"/><path id="d-d" d="M299 -14Q239.1 -14 189.9 5.1Q140.6 24.1 105.1 60.3Q69.7 96.4 50.7 146.7Q31.7 197 31.7 258.4Q31.7 341 65.1 401.9Q98.6 462.7 159 496.4Q219.4 530 299.3 530Q353.7 530 398.1 514.1Q442.6 498.3 474.4 468.8Q506.1 439.3 522.3 399.6H526.9V729H590.1V0H528.4L527.6 116.3H523Q499.1 58.3 441.1 22.1Q383.1 -14 299 -14ZM311.9 38.7Q377.1 38.7 425.5 63.4Q473.9 88.1 500.3 132.4Q526.7 176.7 526.7 233.6V282.4Q526.7 340.1 500.3 383.9Q473.9 427.7 425.6 452.4Q377.3 477.1 311.9 477.1Q243.6 477.1 195.4 450.4Q147.1 423.7 121.6 374.6Q96 325.6 96 258.4Q96 192.3 121.6 142.7Q147.1 93.1 195.4 65.9Q243.6 38.7 311.9 38.7Z"/><path id="d-o" d="M323.9 -10Q258.1 -10 204.3 8.9Q150.4 27.9 111.5 63.4Q72.6 99 51.6 148.5Q30.6 198 30.6 259.1Q30.6 341.4 67.4 401.9Q104.3 462.3 170.4 495.7Q236.4 529.1 323.9 529.1Q389.6 529.1 443.4 510.2Q497.3 491.3 536.2 455.7Q575.1 420.1 596.1 370.2Q617.1 320.3 617.1 259.1Q617.1 178.7 580.4 117.8Q543.6 56.9 477.9 23.4Q412.3 -10 323.9 -10ZM323.9 43.9Q393.7 43.9 445 70.3Q496.3 96.7 524.7 145.4Q553.1 194.1 553.1 259.1Q553.1 308.4 537.1 348.4Q521 388.3 491.1 416.6Q461.1 444.9 418.6 460.1Q376 475.4 323.9 475.4Q254.1 475.4 202.9 449Q151.6 422.6 123.1 373.9Q94.7 325.1 94.7 259.1Q94.7 210.7 110.8 170.9Q126.9 131 156.8 102.7Q186.7 74.4 229.2 59.1Q271.7 43.9 323.9 43.9Z"/><path id="d-m" d="M62.7 0V520.9H125.4L126.9 407.4H131.7Q157.7 466 212.4 497.6Q267 529.1 335.9 529.1Q411.3 529.1 463.3 492.8Q515.3 456.4 532.6 392.7H540Q567 459.6 624.6 494.4Q682.1 529.1 755.1 529.1Q824.3 529.1 872.2 503.8Q920.1 478.4 945 427.1Q969.9 375.7 969.9 296.1V0H905.7V287.9Q905.7 347.7 890.1 389.7Q874.6 431.7 838.5 454.1Q802.4 476.4 740.9 476.4Q683 476.4 639.4 451.3Q595.9 426.1 571.9 380.6Q547.9 335.1 547.9 274V0H483.9V276.1Q483.9 343.6 465.8 388.1Q447.7 432.6 411.1 454.5Q374.6 476.4 320.6 476.4Q259.3 476.4 215.8 451.2Q172.3 426 149.6 380.5Q126.9 335 126.9 274V0Z"/><path id="d-h" d="M62.7 0V729H126V398H131.7Q162.4 461.3 224.5 495.2Q286.6 529.1 360.9 529.1Q411.3 529.1 453 516.1Q494.7 503.1 524.9 474.9Q555 446.7 572 399.9Q589 353 589 285.3V0H525.7V274.6Q525.7 346 505.4 390.4Q485 434.9 445.2 455.6Q405.4 476.3 346 476.3Q281 476.3 231.5 448.8Q182 421.3 154 372.6Q126 323.9 126 258.1V0Z"/><path id="d-n" d="M62.7 0V520.9H124.9L126 398.1H131.7Q162.6 461.6 224.8 495.4Q287 529.1 360.9 529.1Q411.3 529.1 453 516.1Q494.7 503.1 524.9 474.9Q555 446.7 572 399.9Q589 353 589 285.3V0H525.7V274.6Q525.7 346 505.4 390.4Q485 434.9 445.2 455.6Q405.4 476.4 346 476.4Q281 476.4 231.6 448.9Q182.1 421.4 154.1 372.6Q126 323.9 126 258.1V0Z"/><path id="d-g" d="M300.9 -177Q229 -177 174.9 -158Q120.7 -139 89.3 -102.8Q57.9 -66.6 52 -17H112.9Q119.4 -53.7 144.5 -78.5Q169.6 -103.3 210 -115.4Q250.4 -127.6 301.3 -127.6Q364.4 -127.6 410.9 -111.1Q457.3 -94.6 482.9 -58.1Q508.4 -21.7 508.4 35.6V147.7H503Q479 94 418.5 61.6Q358 29.3 282.6 29.3Q223.3 29.3 176.6 47.4Q129.9 65.4 96.9 98.6Q64 131.7 46.9 177.5Q29.9 223.3 29.9 279.6Q29.9 355 63 411.4Q96.1 467.7 154.2 498.9Q212.3 530 288 530Q365.7 530 420.9 497.1Q476.1 464.3 503.3 410.3H508.9L510.3 520.9H571.6V38.1Q571.6 -31.6 540.3 -79.9Q509 -128.3 448.6 -152.6Q388.3 -177 300.9 -177ZM297.6 80.3Q361.3 80.3 408.6 102.1Q456 124 482.2 163.1Q508.4 202.1 508.4 251.6V293.7Q508.4 348.3 482.6 389.9Q456.9 431.4 410.4 455Q363.9 478.6 300.3 478.6Q238.3 478.6 191.6 453.6Q145 428.7 119.6 384.4Q94.1 340 94.1 279.7Q94.1 217 119.6 172.2Q145 127.4 190.8 103.9Q236.6 80.3 297.6 80.3Z"/><path id="d-r" d="M62.7 0V520.9H118.9L123.3 420.6H126.1Q143.1 470.7 185.9 499.4Q228.7 528 285.7 528Q302 528 315.4 526.3Q328.9 524.6 336.3 521.9V462.7Q326.9 466.4 313.5 467.9Q300.1 469.3 285.7 469.3Q242.9 469.3 207.9 452Q173 434.7 151.2 401.4Q129.4 368 125.1 319.7V0Z"/><path id="d-period" d="M79.6 -7.4Q59.4 -7.4 48.2 3.2Q37 13.9 37 30.7Q37 47.6 48.2 58.1Q59.4 68.7 79.6 68.7Q99.7 68.7 110.9 58.1Q122.1 47.6 122.1 30.7Q122.1 13.9 110.9 3.2Q99.7 -7.4 79.6 -7.4Z"/></defs><rect x="0" y="0" width="1200" height="1" fill="#E2E4E8"/><g fill="#676C75"><use href="#t-C" transform="translate(0.00 46.00) scale(0.01700 -0.01700)"/><use href="#t-o" transform="translate(13.11 46.00) scale(0.01700 -0.01700)"/><use href="#t-n" transform="translate(23.22 46.00) scale(0.01700 -0.01700)"/><use href="#t-t" transform="translate(33.30 46.00) scale(0.01700 -0.01700)"/><use href="#t-a" transform="translate(39.25 46.00) scale(0.01700 -0.01700)"/><use href="#t-c" transform="translate(49.64 46.00) scale(0.01700 -0.01700)"/><use href="#t-t" transform="translate(59.18 46.00) scale(0.01700 -0.01700)"/></g><g fill="#0A0B0D"><use href="#d-L" transform="translate(296.03 75.89) scale(0.05800 -0.05800)"/><use href="#d-e" transform="translate(326.08 75.89) scale(0.05800 -0.05800)"/><use href="#d-t" transform="translate(360.59 75.89) scale(0.05800 -0.05800)"/><use href="#d-quoteright" transform="translate(379.15 75.89) scale(0.05800 -0.05800)"/><use href="#d-s" transform="translate(382.86 75.89) scale(0.05800 -0.05800)"/><use href="#d-b" transform="translate(424.97 75.89) scale(0.05800 -0.05800)"/><use href="#d-u" transform="translate(461.68 75.89) scale(0.05800 -0.05800)"/><use href="#d-i" transform="translate(497.06 75.89) scale(0.05800 -0.05800)"/><use href="#d-l" transform="translate(506.28 75.89) scale(0.05800 -0.05800)"/><use href="#d-d" transform="translate(515.50 75.89) scale(0.05800 -0.05800)"/><use href="#d-s" transform="translate(563.47 75.89) scale(0.05800 -0.05800)"/><use href="#d-o" transform="translate(594.04 75.89) scale(0.05800 -0.05800)"/><use href="#d-m" transform="translate(629.88 75.89) scale(0.05800 -0.05800)"/><use href="#d-e" transform="translate(687.88 75.89) scale(0.05800 -0.05800)"/><use href="#d-t" transform="translate(722.39 75.89) scale(0.05800 -0.05800)"/><use href="#d-h" transform="translate(740.95 75.89) scale(0.05800 -0.05800)"/><use href="#d-i" transform="translate(776.33 75.89) scale(0.05800 -0.05800)"/><use href="#d-n" transform="translate(785.55 75.89) scale(0.05800 -0.05800)"/><use href="#d-g" transform="translate(821.45 75.89) scale(0.05800 -0.05800)"/><use href="#d-t" transform="translate(868.32 75.89) scale(0.05800 -0.05800)"/><use href="#d-o" transform="translate(885.83 75.89) scale(0.05800 -0.05800)"/><use href="#d-g" transform="translate(922.66 75.89) scale(0.05800 -0.05800)"/><use href="#d-e" transform="translate(957.70 75.89) scale(0.05800 -0.05800)"/><use href="#d-t" transform="translate(992.21 75.89) scale(0.05800 -0.05800)"/><use href="#d-h" transform="translate(1010.77 75.89) scale(0.05800 -0.05800)"/><use href="#d-e" transform="translate(1046.73 75.89) scale(0.05800 -0.05800)"/><use href="#d-r" transform="translate(1082.05 75.89) scale(0.05800 -0.05800)"/><use href="#d-period" transform="translate(1096.32 75.89) scale(0.05800 -0.05800)"/></g></svg>