<svg xmlns="http://www.w3.org/2000/svg" viewBox="0 0 1200 652" width="1200" height="652" role="img" aria-label="Stack. Languages: Python, TypeScript, JavaScript, HTML. Backend: Django, FastAPI, Node.js. Machine learning: PyTorch, TensorFlow. Frontend: React, Next.js, Tailwind CSS. Data &amp; messaging: PostgreSQL, Redis, RabbitMQ. Cloud &amp; DevOps: AWS, Docker, GitHub Actions, Linux. Observability: Sentry, Prometheus. Workflow: Git, GitHub, GitLab, Postman. Editors &amp; notes: PyCharm, WebStorm, Notion"><title>Stack. Languages: Python, TypeScript, JavaScript, HTML. Backend: Django, FastAPI, Node.js. Machine learning: PyTorch, TensorFlow. Frontend: React, Next.js, Tailwind CSS. Data &amp; messaging: PostgreSQL, Redis, RabbitMQ. Cloud &amp; DevOps: AWS, Docker, GitHub Actions, Linux. Observability: Sentry, Prometheus. Workflow: Git, GitHub, GitLab, Postman. Editors &amp; notes: PyCharm, WebStorm, Notion</title><defs><path id="t-S" d="M326.3 -8.6Q230.8 -8.6 168 21.4Q105.2 51.4 74.2 104.8Q43.2 158.3 41.8 226.9H134.7Q136.1 176.9 157 139.9Q177.9 102.9 219.8 83Q261.8 63.1 327.8 63.1Q383.5 63.1 424.9 76.8Q466.3 90.5 489.1 119Q511.9 147.6 511.9 191.5Q511.9 225.6 501.3 248.8Q490.7 272 466.8 287.7Q442.9 303.5 404.7 314.4Q366.4 325.4 311.1 335.2Q248.8 346.2 201.5 361.5Q154.2 376.7 122.5 399.3Q90.9 421.8 74.9 455.1Q58.9 488.3 58.9 534.9Q58.9 596.6 90.2 642Q121.6 687.5 180.2 712.4Q238.8 737.3 320.8 737.3Q404 737.3 461.6 710.8Q519.2 684.4 550.2 636.9Q581.3 589.5 581.9 525.5H490.4Q488.7 572.4 466.8 603.9Q444.9 635.3 406.8 650.9Q368.7 666.5 316.5 666.5Q264.4 666.5 227.8 652Q191.1 637.4 171.7 610.8Q152.3 584.3 152.3 546.5Q152.3 505.3 171.5 481.4Q190.7 457.6 235.3 443.3Q280 429 355.6 415.5Q405.1 407.5 450 394.8Q494.9 382.1 530 359.1Q565.1 336.2 585.4 297.3Q605.7 258.4 605.7 196.9Q605.7 135.8 573.8 89.3Q541.9 42.8 479.6 17.1Q417.3 -8.6 326.3 -8.6Z"/><path id="t-t" d="M235.7 0Q180 0 151.2 26.9Q122.4 53.8 122.4 114.3V455.5H20.4V525.5H122.4V681.6L207.1 692.8V525.5H328.1V455.5H207.8V128.3Q207.8 98.4 221.5 85.6Q235.3 72.8 262.6 72.8H329.4V0Z"/><path id="t-a" d="M264.1 -8.6Q215.8 -8.6 175.7 10Q135.5 28.7 106.5 63.7Q77.5 98.6 62 149.1Q46.5 199.5 46.5 263.1Q46.5 348.3 74 409.2Q101.5 470.2 150.5 502.5Q199.5 534.8 264.1 534.8Q309.4 534.8 346.2 520.4Q383 505.9 409 480.1Q434.9 454.3 446.9 419.1H452.1L455.7 525.5H536.2V0H455.7L452.1 107.8H446.9Q428.5 55.5 380.3 23.4Q332.2 -8.6 264.1 -8.6ZM291.9 62.8Q343.1 62.8 378.6 86.4Q414 110 432.4 148.4Q450.8 186.8 450.8 231.9V295Q450.8 340.7 432.1 379.2Q413.4 417.8 378.1 441Q342.8 464.1 293.5 464.1Q243.8 464.1 208.1 440.2Q172.4 416.3 153.1 371.5Q133.9 326.8 133.9 263.1Q133.9 201.1 152.8 155.8Q171.7 110.5 207.1 86.7Q242.5 62.8 291.9 62.8Z"/><path id="t-c" d="M295.8 -8.6Q239 -8.6 192.5 10.7Q145.9 30 112.5 65.8Q79.1 101.6 61.3 151.2Q43.5 200.8 43.5 262Q43.5 323.3 61.5 373.2Q79.4 423.2 113.3 459.1Q147.2 495.1 194.4 514.6Q241.6 534.1 299.5 534.1Q360.4 534.1 408.9 511.8Q457.3 489.4 487.5 449Q517.8 408.5 523.6 355.2H440.5Q432.7 390.2 412.2 413.8Q391.8 437.4 362 449.6Q332.3 461.7 296.8 461.7Q257 461.7 226.3 447.2Q195.5 432.7 173.9 406.3Q152.2 379.9 141 343.3Q129.9 306.8 129.9 261.7Q129.9 198.9 150.6 154.8Q171.4 110.7 208.8 87.2Q246.1 63.8 295.8 63.8Q336.3 63.8 367 78.1Q397.8 92.4 417.7 117.9Q437.7 143.4 443.1 177.8H526.7Q520.5 121.4 489.3 79.3Q458 37.1 408.6 14.3Q359.2 -8.6 295.8 -8.6Z"/><path id="t-k" d="M75.3 0V729H161.6V261.2L208.4 311.1L420.6 525.5H527.7L323.2 321.9L536.3 0H436.1L295.2 211.6L263.2 264.1L161.6 165.3V0Z"/><path id="t-L" d="M83 0V729H172.9V57.7L152.7 81.6H529.7V0Z"/><path id="t-n" d="M75.3 0V525.5H156.4L160 417.3H165.2Q189.3 475.5 239 504.8Q288.7 534.1 348.2 534.1Q388.9 534.1 423.4 521.8Q457.9 509.4 483.2 482.7Q508.5 456.1 522.6 413.6Q536.8 371.1 536.8 310.4V0H451.4V293.1Q451.4 351 437.2 388.5Q423.1 426.1 394.1 444.2Q365.1 462.4 319.6 462.4Q271.1 462.4 235.1 438.8Q199.2 415.2 179.6 375.3Q160 335.5 160 284.7V0Z"/><path id="t-g" d="M276.7 -177Q216.5 -177 171.1 -159.1Q125.7 -141.2 98.3 -108.2Q70.9 -75.3 65.1 -30.1H147.6Q152.4 -55.1 169.8 -73.9Q187.1 -92.7 214.6 -102.6Q242.1 -112.6 278.2 -112.6Q331.3 -112.6 365.9 -97.3Q400.4 -82 417 -50.6Q433.6 -19.3 433.6 29.7V127.9H429.4Q411.9 79.2 365.6 48.6Q319.2 18 254.2 18Q207.9 18 169.5 35.9Q131.2 53.7 103.4 87.2Q75.5 120.7 60.5 168.5Q45.5 216.3 45.5 276.6Q45.5 357.5 71.9 415.5Q98.2 473.5 145.2 504.5Q192.2 535.5 254.2 535.5Q318 535.5 364.6 506.1Q411.3 476.7 429.4 426.3H434.6L437.5 525.5H519V42.3Q519 -34.5 489.5 -83.1Q460 -131.7 405.8 -154.4Q351.6 -177 276.7 -177ZM283.3 89.4Q331.2 89.4 364.8 111.4Q398.4 133.4 415.8 169.5Q433.3 205.6 433.3 247.7V306.9Q433.3 349.9 415.5 385.7Q397.8 421.5 364.7 443.1Q331.6 464.8 284.9 464.8Q237.5 464.8 203.4 442.2Q169.4 419.6 151.1 377.5Q132.9 335.3 132.9 276.6Q132.9 218.5 150.8 176.6Q168.7 134.6 202.5 112Q236.2 89.4 283.3 89.4Z"/><path id="t-u" d="M255.8 -8.6Q197.3 -8.6 154.3 14.8Q111.3 38.3 88.6 85.8Q65.9 133.3 65.9 203.1V525.5H151.3V224.2Q151.3 173.1 165.1 137.1Q178.9 101.1 208.8 82.1Q238.6 63.1 285.8 63.1Q332.3 63.1 367.6 86Q402.8 108.9 422.4 150.1Q442 191.4 442 244.9V525.5H527.4V0H446.3L442 110.9H436.8Q416.4 55.1 367.6 23.2Q318.7 -8.6 255.8 -8.6Z"/><path id="t-e" d="M277.8 -9.2Q202.4 -9.2 148.7 24.1Q95 57.4 66.8 118.3Q38.6 179.2 38.6 260.6Q38.6 344 66.6 405.3Q94.6 466.6 147.3 500.3Q200 534 274.8 534Q355.4 534 408 497.5Q460.6 461 484.1 396.6Q507.6 332.2 501.6 247.8H121.8Q123.2 184.2 142.3 141.9Q161.4 99.6 196.4 78.6Q231.4 57.6 277.8 57.6Q333.2 57.6 368.6 83Q404 108.4 415.8 150.4H497.4Q488.8 100.2 458.3 64.5Q427.8 28.8 381.5 9.8Q335.2 -9.2 277.8 -9.2ZM122.6 296.2 113.8 308.2H427.4L418.4 294.8Q419.6 355.6 401.6 393.4Q383.6 431.2 351 449.3Q318.4 467.4 274.8 467.4Q230.2 467.4 196.7 448Q163.2 428.6 144 390.6Q124.8 352.6 122.6 296.2Z"/><path id="t-s" d="M255.9 -10Q206.5 -10 167.1 2Q127.8 13.9 99.8 35.5Q71.7 57.1 56.5 87.9Q41.2 118.7 39.8 155.9H124.3Q127 121.1 144 98.4Q161.1 75.8 190.7 64.9Q220.3 54.1 258.2 54.1Q317.7 54.1 349.2 76.6Q380.7 99.2 380.7 139.9Q380.7 170.6 367.3 187.9Q353.8 205.2 325.1 214.8Q296.5 224.5 249.7 231.2Q185 240.9 141.4 257.1Q97.8 273.4 76 302.7Q54.2 332.1 54.2 380.6Q54.2 427.4 79.6 461.9Q104.9 496.3 150.3 515.9Q195.7 535.5 256.4 535.5Q317.5 535.5 361.8 516Q406.1 496.6 431 460.8Q455.8 425.1 457.5 376.1H373.7Q372.3 410.4 356.9 431.2Q341.5 452.1 315.6 461.7Q289.7 471.4 255.2 471.4Q200.6 471.4 170.1 448.8Q139.6 426.3 139.6 388.7Q139.6 361 154.2 343.9Q168.9 326.8 200 317.3Q231 307.9 279 300.8Q338.3 292.5 380.8 276.6Q423.3 260.7 445.5 230.1Q467.8 199.6 467.8 147.3Q467.8 97.2 441.4 62Q415.1 26.8 367.3 8.4Q319.6 -10 255.9 -10Z"/><path id="t-P" d="M83 0V729H363.8Q446.1 729 503.7 701.4Q561.4 673.9 591.7 622.8Q622 571.8 622 500.5Q622 429.4 589.8 377.9Q557.6 326.3 499.6 298.7Q441.6 271.1 363.1 271.1H161.7V344.5H356.4Q442.3 344.5 486.1 387.1Q529.9 429.8 529.9 498.3Q529.9 572.1 484 611.1Q438.2 650.2 356.4 650.2H156.3L172.9 665.3V0Z"/><path id="t-y" d="M55.8 -167V-96H109.7Q134.2 -96 151.1 -89.3Q168 -82.6 180 -68.5Q192.1 -54.4 200.1 -32.6L234.2 54.4V18.3L19 525.5H113.1L221.1 240.9L266.3 117.8H271.3L313.5 240.9L415.1 525.5H506.2L281.1 -54.1Q265.3 -95.4 243.7 -120.2Q222 -145.1 192.6 -156.1Q163.1 -167 123.1 -167Z"/><path id="t-h" d="M75.3 0V729H160V417.3H165.2Q189.3 475.5 239 504.8Q288.7 534.1 348.2 534.1Q388.9 534.1 423.4 521.8Q457.9 509.4 483.2 482.7Q508.5 456.1 522.6 413.6Q536.8 371.1 536.8 310.4V0H451.4V293.1Q451.4 351 437.2 388.5Q423.1 426.1 394.1 444.2Q365.1 462.4 319.6 462.4Q271.1 462.4 235.1 438.8Q199.2 415.2 179.6 375.3Q160 335.5 160 284.7V0Z"/><path id="t-o" d="M298.5 -8.6Q241 -8.6 194.5 10.2Q147.9 29.1 114 64.9Q80.1 100.7 61.8 150.4Q43.5 200.2 43.5 261.7Q43.5 342.6 74.6 403.9Q105.8 465.2 163.1 499.6Q220.5 534.1 298.5 534.1Q355.3 534.1 401.9 515.3Q448.4 496.4 481.7 460.6Q514.9 424.8 533.2 374.9Q551.5 324.9 551.5 262.4Q551.5 182.5 520.7 121.4Q489.9 60.3 433 25.8Q376.2 -8.6 298.5 -8.6ZM297.8 64.1Q347.8 64.1 385.5 87.4Q423.2 110.7 444 155.3Q464.7 199.9 464.7 262.4Q464.7 309.1 453.3 345.9Q441.8 382.7 420 408.9Q398.2 435 367.6 448.5Q337 462 298.5 462Q248.5 462 210.5 438.4Q172.5 414.8 151.4 370.3Q130.2 325.9 130.2 261.7Q130.2 215.7 141.7 178.9Q153.2 142.1 175.3 116.6Q197.5 91.2 228.5 77.7Q259.6 64.1 297.8 64.1Z"/><path id="t-T" d="M260.1 0V661.5H349.9V0ZM25.5 649.6V729H586.4V649.6Z"/><path id="t-p" d="M75.3 -167V525.5H155.8L159.3 417.7H164.5Q183 470 231.5 502.1Q280 534.1 347.3 534.1Q396 534.1 436 515.5Q476 496.8 505 461.8Q534 426.9 549.5 376.4Q565 326 565 262.4Q565 177.5 537.6 116.4Q510.3 55.3 461.5 23Q412.7 -9.3 347.3 -9.3Q302.4 -9.3 265.4 5.1Q228.5 19.5 202.9 45.9Q177.3 72.2 164.5 106.4H160.7V-167ZM318 61.4Q367.7 61.4 403.4 85.3Q439.1 109.2 458.4 154.4Q477.6 199.7 477.6 262.4Q477.6 325.4 458.7 370.2Q439.7 414.9 404.3 438.8Q368.9 462.7 319.5 462.7Q268.7 462.7 233.1 439.4Q197.5 416.1 179.1 377.4Q160.7 338.7 160.7 293.6V230.5Q160.7 184.8 179.4 146.6Q198.1 108.3 233.4 84.9Q268.7 61.4 318 61.4Z"/><path id="t-r" d="M75.3 0V525.5H151.6L156.5 429.3H160.1Q177.4 480 220 506.2Q262.7 532.5 316.2 532.5Q325.2 532.5 332.9 532.1Q340.5 531.8 347.5 531.1V450.2Q341.2 450.9 332.9 451.2Q324.5 451.5 315.6 451.5Q269.8 451.5 236 435Q202.2 418.4 182.8 387Q163.4 355.7 160 311.2V0Z"/><path id="t-i" d="M75.3 0V525.5H160.7V0ZM118.5 613.7Q95.5 613.7 80.8 626.6Q66 639.5 66 661Q66 683.2 80.8 695.8Q95.5 708.4 118.5 708.4Q141.4 708.4 156.1 695.8Q170.9 683.2 170.9 661Q170.9 639.5 156.1 626.6Q141.4 613.7 118.5 613.7Z"/><path id="t-J" d="M25.5 0V73H119.3Q181.1 73 204.9 102.7Q228.7 132.3 228.7 193.5V729H318.3V186Q318.3 124.7 299.3 83.1Q280.3 41.5 240.5 20.7Q200.8 0 138.4 0Z"/><path id="t-v" d="M210.4 0 20.3 525.5H112.2L213.1 217.4L261.2 66.8H265.9L314 217.4L414.9 525.5H507.1L317 0Z"/><path id="t-H" d="M83 0V729H172.9V0ZM607.2 0V729H697.1V0ZM147.2 337.2V415.9H632.9V337.2Z"/><path id="t-M" d="M83 0V729H228.6L385.4 305L444.4 116.2H450.8L510.4 305L667.6 729H812.4V0H724.4V377.6L727.8 646.8H720.6L634.6 398L488.2 0H407L262.8 394.2L175.4 646.8H168L171.4 376.8V0Z"/><path id="t-B" d="M83 0V729H411.6Q517 729 573.2 677.5Q629.3 626 629.3 542.4Q629.3 502.1 615.2 468.7Q601.1 435.3 573.1 412.1Q545.1 388.9 503 379.2L502.7 374.6Q552.3 365.9 584.3 341.6Q616.3 317.2 632.5 281.7Q648.7 246.1 648.7 203.8Q648.7 139.3 619.1 93.7Q589.5 48.1 534.4 24Q479.4 0 402.4 0ZM171 72.8H394.9Q476.4 72.8 516.4 110.8Q556.5 148.8 556.5 208.9Q556.5 271.2 517.2 304.6Q478 338.1 407.8 338.1H159.8V408.3H403.6Q449.1 408.3 478.9 423.6Q508.8 439 524 466.3Q539.2 493.7 539.2 530.1Q539.2 590.9 499 623.9Q458.8 656.9 392.3 656.9H171Z"/><path id="t-d" d="M264.1 -8.6Q215.8 -8.6 175.7 10Q135.5 28.7 106.5 63.7Q77.5 98.6 62 149.1Q46.5 199.5 46.5 263.1Q46.5 348.3 74 409.2Q101.5 470.2 150.5 502.5Q199.5 534.8 264.1 534.8Q309.4 534.8 346.2 520.4Q383 505.9 409 480.1Q434.9 454.3 446.9 419.1H450.8V729H536.2V0H455.7L452.1 107.8H446.9Q428.5 55.5 380.3 23.4Q332.2 -8.6 264.1 -8.6ZM291.9 62.8Q343.1 62.8 378.6 86.4Q414 110 432.4 148.4Q450.8 186.8 450.8 231.9V295Q450.8 340.7 432.1 379.2Q413.4 417.8 378.1 441Q342.8 464.1 293.5 464.1Q243.8 464.1 208.1 440.2Q172.4 416.3 153.1 371.5Q133.9 326.8 133.9 263.1Q133.9 201.1 152.8 155.8Q171.7 110.5 207.1 86.7Q242.5 62.8 291.9 62.8Z"/><path id="t-D" d="M83 0V729H370.9Q474.7 729 547.9 683.7Q621.2 638.4 659.9 556.4Q698.5 474.4 698.5 364Q698.5 282.3 676.5 215Q654.5 147.6 612.4 99.8Q570.3 52 509.5 26Q448.7 0 370.9 0ZM172.9 79.1H359.2Q415.5 79.1 461.1 97.2Q506.7 115.4 539.1 151.6Q571.5 187.9 588.8 241.7Q606 295.4 606 365.9Q606 461.4 575.3 524.3Q544.6 587.3 489.1 618.9Q433.6 650.6 359.2 650.6H172.9Z"/><path id="t-j" d="M-28.5 -167V-101.9H15.3Q47.8 -101.9 61.5 -86.6Q75.3 -71.4 75.3 -34.5V525.5H160.7V-40.1Q160.7 -79.2 148.1 -107.8Q135.6 -136.4 109.5 -151.7Q83.4 -167 40.8 -167ZM118.1 613.7Q95.2 613.7 80.5 626.6Q65.7 639.5 65.7 661Q65.7 683.2 80.5 695.8Q95.2 708.4 118.1 708.4Q141.1 708.4 155.8 695.8Q170.6 683.2 170.6 661Q170.6 639.5 155.8 626.6Q141.1 613.7 118.1 613.7Z"/><path id="t-F" d="M83 0V729H584V650.3H155.3L172.9 667.9V0ZM144.1 321.3V396.6H544V321.3Z"/><path id="t-A" d="M24.7 0 289.4 729H416.6L680.6 0H586.9L387.7 566.3L356.5 658.6H350.2L319 566.3L119.1 0ZM172 177.3 186.1 250.4H519.2L533.3 177.3Z"/><path id="t-I" d="M83 0V729H172.9V0Z"/><path id="t-N" d="M83 0V729H197.7L601.5 120.3H606.8L601.8 366.2V729H689.2V0H578.9L175.2 605.9H169.9L174.1 373.1V0Z"/><path id="t-period" d="M94.7 -7.3Q72.6 -7.3 58.6 5.7Q44.6 18.7 44.6 40.2Q44.6 61.7 58.6 74.7Q72.6 87.8 94.7 87.8Q116.9 87.8 130.9 74.7Q144.9 61.7 144.9 40.2Q144.9 18.7 130.9 5.7Q116.9 -7.3 94.7 -7.3Z"/><path id="t-l" d="M75.3 0V729H160.7V0Z"/><path id="t-w" d="M144 0 9.6 525.6H94.8L171.6 217.2L203.4 75.8H208.8L237.6 217.2L307.4 525.6H409.4L482.8 217.2L513 75.2H518.4L549.2 217.2L624.8 525.6H707.4L572.6 0H460L388.6 290.4L358.8 429.6H354.4L326.2 290.4L259.6 0Z"/><path id="t-R" d="M83 0V729H420Q463.7 729 499.3 721Q534.9 713 563 697Q591.1 681 610.2 657.5Q629.3 634.1 639.4 603.5Q649.5 572.9 649.5 535Q649.5 467.3 615.6 420.8Q581.7 374.3 517.3 356.2V350.6Q559.9 343.6 585.8 324.9Q611.6 306.2 623 276.5Q634.5 246.8 634.5 205.1V77.4Q634.5 59.1 636 39.9Q637.5 20.6 646.1 0H555.3Q548.6 15.4 546.3 35Q544 54.6 544 79.8V189.3Q544 228.7 532.5 254.8Q521.1 280.9 491.5 294.3Q461.9 307.7 407.1 307.7H161.7V381.7H401.6Q485.5 381.7 521.5 420.6Q557.4 459.5 557.4 520.3Q557.4 555.3 546.4 580.1Q535.5 604.9 514.4 621.1Q493.3 637.3 465 644.7Q436.7 652.1 401.6 652.1H172.9V0Z"/><path id="t-x" d="M16.7 0 223.6 272.9 37.8 525.5H137.9L266.8 344L279.2 325.7H283.8L295.5 344L422.7 525.5H519.7L337.1 274.5L540.1 0H439.2L294.6 202.2L280.9 222.8H276.3L261.9 202.2L112.3 0Z"/><path id="t-C" d="M403.4 -8.6Q322.9 -8.6 257.3 17.2Q191.7 43.1 144.2 92Q96.8 140.9 71.6 209.8Q46.5 278.8 46.5 364.3Q46.5 450.5 72 519.3Q97.5 588.1 144.6 636.7Q191.7 685.2 257.3 711.1Q322.9 736.9 403.4 736.9Q492.2 736.9 561.9 706.2Q631.5 675.4 675.8 619.5Q720.1 563.7 731.5 487.1H639.7Q629.6 537.7 598 576Q566.3 614.3 517.1 636.3Q467.9 658.2 403.4 658.2Q322.2 658.2 263.3 623Q204.3 587.7 172.2 522Q140 456.2 140 364.3Q140 295.9 158.5 241.1Q177 186.4 211.2 148.3Q245.4 110.3 293.9 90.2Q342.4 70.1 403.4 70.1Q467.2 70.1 517 91.7Q566.7 113.3 598.7 152.6Q630.6 192 639.7 244.3H731.5Q722.2 167.7 677.9 110.6Q633.7 53.6 563.3 22.5Q492.9 -8.6 403.4 -8.6Z"/><path id="t-ampersand" d="M687 -5.9Q642.4 -5.9 603.7 11.8Q565.1 29.6 530.7 59.1Q496.3 88.6 463.9 124L264.4 342.7Q227.9 383 205.2 415.6Q182.6 448.3 170.4 475.2Q158.2 502.2 153.7 524.7Q149.2 547.2 149.2 567.5Q149.2 619.9 173.9 658.2Q198.5 696.5 240.9 717.8Q283.3 739 337.6 739Q387.3 739 425.4 719.2Q463.5 699.5 485 664.1Q506.5 628.8 506.5 581.3Q506.5 538.7 486.3 501.7Q466.1 464.7 426.5 433.7Q386.9 402.6 329.3 376.1L290.6 417.9Q339.4 440.9 369.6 465Q399.9 489.1 414.6 516.2Q429.3 543.3 429.3 573.7Q429.3 618.6 403.7 643.3Q378.2 667.9 335.6 667.9Q289.6 667.9 260.9 641.2Q232.1 614.5 232.1 570.9Q232.1 551 236.9 531.4Q241.6 511.8 253.2 489.5Q264.9 467.3 286.2 439.6Q307.5 411.8 340.6 375.3L517.7 181Q556.5 137.8 587.2 113.8Q618 89.9 645.5 79.7Q673.1 69.6 701.7 69.6Q711.7 69.6 720.3 71.1Q729 72.6 736.9 75.9L734.7 -0.3Q724.3 -2.9 712.1 -4.4Q699.9 -5.9 687 -5.9ZM245.4 -10Q188.5 -10 144.3 13.3Q100.1 36.6 74.8 78.9Q49.6 121.2 49.6 176.7Q49.6 226.5 73 268.1Q96.4 309.8 138.9 342.6Q181.4 375.3 238.1 398.2L279.9 348Q231.9 328.6 200.1 303.9Q168.2 279.3 151.9 249.9Q135.7 220.5 135.7 184.9Q135.7 128.9 170.9 95Q206.2 61 262.2 61Q328.1 61 375.1 89.6Q422 118.2 450.4 168.3L502.7 125.8Q475.9 81.1 436.7 50.6Q397.5 20.1 349.1 5.1Q300.8 -10 245.4 -10ZM531 153 474.5 198.5Q494.3 233.1 506.3 268.4Q518.3 303.7 523 338.6L523.7 368.5H687.3L695.4 297.6L588.4 299.2Q583.9 277.3 575.2 251.7Q566.6 226 555.3 200.4Q544 174.8 531 153Z"/><path id="t-m" d="M75.3 0V525.5H156.7L160 417.3H165.2Q188.7 475.5 237.2 504.8Q285.7 534.1 344.3 534.1Q404.1 534.1 450.3 505Q496.5 475.9 516.4 408.1H524.4Q547.6 470.9 598.5 502.5Q649.5 534.1 713.3 534.1Q766.3 534.1 808 511.9Q849.7 489.7 873.5 440.6Q897.3 391.4 897.3 310.4V0H812.6V293.1Q812.6 351 798.8 388.5Q784.9 426.1 756.6 444.2Q728.2 462.4 683.7 462.4Q636.8 462.4 602 438.8Q567.2 415.2 548.3 375.3Q529.3 335.5 529.3 284.7V0H443.3V293.1Q443.3 351 429.4 388.5Q415.5 426.1 387.5 444.2Q359.5 462.4 315.7 462.4Q268.1 462.4 233.3 438.8Q198.5 415.2 179.3 375.3Q160 335.5 160 284.7V0Z"/><path id="t-Q" d="M403.1 40.3 690.2 72H792.3V0H403.7ZM403.4 -8.6Q322.9 -8.6 257.3 17.2Q191.7 43.1 144.2 92Q96.8 140.9 71.6 209.8Q46.5 278.8 46.5 364.3Q46.5 450.5 72 519.3Q97.5 588.1 144.6 636.7Q191.7 685.2 257.3 711.1Q322.9 736.9 403.4 736.9Q484.7 736.9 550.1 711.1Q615.5 685.2 663 636.3Q710.4 587.5 735.5 519Q760.7 450.5 760.7 364.3Q760.7 278.1 735.2 209.1Q709.7 140.2 662.3 91.6Q614.8 43.1 549.4 17.2Q484 -8.6 403.4 -8.6ZM403.4 70.1Q485 70.1 544.3 105.9Q603.5 141.6 635.7 207.4Q667.9 273.1 667.9 364.3Q667.9 433.4 649.3 487.5Q630.8 541.6 596.3 579.8Q561.8 618.1 513.1 638.1Q464.4 658.2 403.4 658.2Q322.2 658.2 263.3 623Q204.3 587.7 172.2 522Q140 456.2 140 364.3Q140 295.9 158.5 241.1Q177 186.4 211.2 148.3Q245.4 110.3 293.9 90.2Q342.4 70.1 403.4 70.1Z"/><path id="t-b" d="M347.3 -9.3Q302.4 -9.3 265.4 5.1Q228.5 19.5 202.9 45.9Q177.3 72.2 164.5 106.4H159.3L155.8 0H75.3V729H160.7V417.7H164.5Q183 470 231.5 502.1Q280 534.1 347.3 534.1Q396 534.1 436 515.5Q476 496.8 505 461.8Q534 426.9 549.5 376.4Q565 326 565 262.4Q565 177.5 537.6 116.4Q510.3 55.3 461.5 23Q412.7 -9.3 347.3 -9.3ZM318 61.4Q367.7 61.4 403.4 85.3Q439.1 109.2 458.4 154.4Q477.6 199.7 477.6 262.4Q477.6 309.2 466.8 346.4Q456 383.7 435.7 409.6Q415.5 435.5 386 449.1Q356.5 462.7 319.5 462.7Q268.7 462.7 233.1 439.4Q197.5 416.1 179.1 377.4Q160.7 338.7 160.7 293.6V230.5Q160.7 184.8 179.4 146.6Q198.1 108.3 233.4 84.9Q268.7 61.4 318 61.4Z"/><path id="t-O" d="M403.4 -8.6Q322.9 -8.6 257.3 17.2Q191.7 43.1 144.2 92Q96.8 140.9 71.6 209.8Q46.5 278.8 46.5 364.3Q46.5 450.5 72 519.3Q97.5 588.1 144.6 636.7Q191.7 685.2 257.3 711.1Q322.9 736.9 403.4 736.9Q484.7 736.9 550.1 711.1Q615.5 685.2 663 636.3Q710.4 587.5 735.5 519Q760.7 450.5 760.7 364.3Q760.7 278.1 735.2 209.1Q709.7 140.2 662.3 91.6Q614.8 43.1 549.4 17.2Q484 -8.6 403.4 -8.6ZM403.4 70.1Q485 70.1 544.3 105.9Q603.5 141.6 635.7 207.4Q667.9 273.1 667.9 364.3Q667.9 433.4 649.3 487.5Q630.8 541.6 596.3 579.8Q561.8 618.1 513.1 638.1Q464.4 658.2 403.4 658.2Q322.2 658.2 263.3 623Q204.3 587.7 172.2 522Q140 456.2 140 364.3Q140 295.9 158.5 241.1Q177 186.4 211.2 148.3Q245.4 110.3 293.9 90.2Q342.4 70.1 403.4 70.1Z"/><path id="t-W" d="M210.4 0 28.4 729H126.9L230 291.1L272.5 82.7H279.5L325.1 291.1L433.3 729H549L656.9 297L704.1 82H710.7L753.2 297L854.4 729H952.9L770.9 0H644.4L544.5 404.3L494.5 631.7H487.8L437.2 404.3L336.2 0Z"/><path id="t-G" d="M393.4 -8.6Q315 -8.6 251.1 17.2Q187.3 43.1 141.2 91.8Q95.2 140.5 70.7 208.6Q46.2 276.6 46.2 360.2Q46.2 447.1 72 516.7Q97.8 586.3 145.3 635.4Q192.9 684.6 259.3 710.8Q325.7 736.9 407.2 736.9Q496.2 736.9 566.2 709.2Q636.2 681.5 681.3 629.6Q726.4 577.6 738.8 503.1H646.7Q634.2 550.6 601.9 585.4Q569.7 620.1 520.5 639.2Q471.3 658.2 406.9 658.2Q322.2 658.2 262.6 621.2Q203.1 584.3 171.4 517.7Q139.7 451.2 139.7 362.1Q139.7 294.7 158.2 240.2Q176.7 185.7 211.2 147.4Q245.7 109 294.7 88.6Q343.7 68.2 405 68.2Q477.4 68.2 533.1 95.7Q588.8 123.2 620.3 173.4Q651.8 223.5 651.8 292V339.5L676.5 316.1H381.2V386.1H747.5V0H675L669 148.2H662.7Q646 101.1 606.2 65.7Q566.4 30.4 511.5 10.9Q456.7 -8.6 393.4 -8.6Z"/><path id="t-t_i_liga" d="M227.2 0Q187.5 0 164.5 11.5Q141.5 22.9 132 45.8Q122.4 68.6 122.4 101.9V455.5H20.4V525.5H122.4V681.6L207.1 692.8V525.5H519.9V0H434.5V455.5H207.1V117.4Q207.1 89.4 217.4 80.4Q227.7 71.4 254.3 71.4H328.1V0ZM477.7 613.7Q454.7 613.7 440 626.6Q425.3 639.5 425.3 661Q425.3 683.2 440 695.8Q454.7 708.4 477.7 708.4Q500.6 708.4 515.4 695.8Q530.1 683.2 530.1 661Q530.1 639.5 515.4 626.6Q500.6 613.7 477.7 613.7Z"/><path id="t-fl" d="M100.8 0V457.2H13.2V525.8H100.8V610.7Q100.8 670.2 134.4 699.6Q167.9 729 228 729H302V661.7H246.4Q211.1 661.7 198.2 645.6Q185.3 629.4 185.3 600.8V525.8H393.4V729H477.8V0H393.4V457.2H185.3V0Z"/><path id="t-E" d="M83 0V729H585.7V650.3H152.1L172.9 671V58.7L152.1 79.4H586.6V0ZM152.1 336V409.9H537.1V336Z"/></defs><rect x="0" y="0" width="1200" height="1" fill="#262C35"/><g fill="#8C939D"><use href="#t-S" transform="translate(0.00 46.00) scale(0.01700 -0.01700)"/><use href="#t-t" transform="translate(11.02 46.00) scale(0.01700 -0.01700)"/><use href="#t-a" transform="translate(16.97 46.00) scale(0.01700 -0.01700)"/><use href="#t-c" transform="translate(27.35 46.00) scale(0.01700 -0.01700)"/><use href="#t-k" transform="translate(36.92 46.00) scale(0.01700 -0.01700)"/></g><g fill="#8C939D"><use href="#t-L" transform="translate(300.00 46.00) scale(0.01700 -0.01700)"/><use href="#t-a" transform="translate(308.96 46.00) scale(0.01700 -0.01700)"/><use href="#t-n" transform="translate(319.35 46.00) scale(0.01700 -0.01700)"/><use href="#t-g" transform="translate(329.72 46.00) scale(0.01700 -0.01700)"/><use href="#t-u" transform="translate(339.81 46.00) scale(0.01700 -0.01700)"/><use href="#t-a" transform="translate(350.06 46.00) scale(0.01700 -0.01700)"/><use href="#t-g" transform="translate(360.45 46.00) scale(0.01700 -0.01700)"/><use href="#t-e" transform="translate(370.55 46.00) scale(0.01700 -0.01700)"/><use href="#t-s" transform="translate(379.85 46.00) scale(0.01700 -0.01700)"/></g><g fill="#EEF1F5"><use href="#t-P" transform="translate(300.00 86.00) scale(0.02400 -0.02400)"/><use href="#t-y" transform="translate(315.94 86.00) scale(0.02400 -0.02400)"/><use href="#t-t" transform="translate(328.90 86.00) scale(0.02400 -0.02400)"/><use href="#t-h" transform="translate(337.34 86.00) scale(0.02400 -0.02400)"/><use href="#t-o" transform="translate(351.77 86.00) scale(0.02400 -0.02400)"/><use href="#t-n" transform="translate(365.81 86.00) scale(0.02400 -0.02400)"/></g><g fill="#EEF1F5"><use href="#t-T" transform="translate(300.00 120.00) scale(0.02400 -0.02400)"/><use href="#t-y" transform="translate(312.67 120.00) scale(0.02400 -0.02400)"/><use href="#t-p" transform="translate(325.06 120.00) scale(0.02400 -0.02400)"/><use href="#t-e" transform="translate(339.94 120.00) scale(0.02400 -0.02400)"/><use href="#t-S" transform="translate(352.70 120.00) scale(0.02400 -0.02400)"/><use href="#t-c" transform="translate(368.42 120.00) scale(0.02400 -0.02400)"/><use href="#t-r" transform="translate(381.70 120.00) scale(0.02400 -0.02400)"/><use href="#t-i" transform="translate(390.31 120.00) scale(0.02400 -0.02400)"/><use href="#t-p" transform="translate(395.74 120.00) scale(0.02400 -0.02400)"/><use href="#t-t" transform="translate(410.04 120.00) scale(0.02400 -0.02400)"/></g><g fill="#EEF1F5"><use href="#t-J" transform="translate(300.00 154.00) scale(0.02400 -0.02400)"/><use href="#t-a" transform="translate(309.31 154.00) scale(0.02400 -0.02400)"/><use href="#t-v" transform="translate(323.74 154.00) scale(0.02400 -0.02400)"/><use href="#t-a" transform="translate(335.98 154.00) scale(0.02400 -0.02400)"/><use href="#t-S" transform="translate(350.40 154.00) scale(0.02400 -0.02400)"/><use href="#t-c" transform="translate(366.12 154.00) scale(0.02400 -0.02400)"/><use href="#t-r" transform="translate(379.39 154.00) scale(0.02400 -0.02400)"/><use href="#t-i" transform="translate(388.01 154.00) scale(0.02400 -0.02400)"/><use href="#t-p" transform="translate(393.43 154.00) scale(0.02400 -0.02400)"/><use href="#t-t" transform="translate(407.74 154.00) scale(0.02400 -0.02400)"/></g><g fill="#EEF1F5"><use href="#t-H" transform="translate(300.00 188.00) scale(0.02400 -0.02400)"/><use href="#t-T" transform="translate(318.48 188.00) scale(0.02400 -0.02400)"/><use href="#t-M" transform="translate(332.93 188.00) scale(0.02400 -0.02400)"/><use href="#t-L" transform="translate(354.17 188.00) scale(0.02400 -0.02400)"/></g><g fill="#8C939D"><use href="#t-B" transform="translate(600.00 46.00) scale(0.01700 -0.01700)"/><use href="#t-a" transform="translate(612.00 46.00) scale(0.01700 -0.01700)"/><use href="#t-c" transform="translate(622.39 46.00) scale(0.01700 -0.01700)"/><use href="#t-k" transform="translate(631.96 46.00) scale(0.01700 -0.01700)"/><use href="#t-e" transform="translate(641.07 46.00) scale(0.01700 -0.01700)"/><use href="#t-n" transform="translate(650.22 46.00) scale(0.01700 -0.01700)"/><use href="#t-d" transform="translate(660.57 46.00) scale(0.01700 -0.01700)"/></g><g fill="#EEF1F5"><use href="#t-D" transform="translate(600.00 86.00) scale(0.02400 -0.02400)"/><use href="#t-j" transform="translate(617.81 86.00) scale(0.02400 -0.02400)"/><use href="#t-a" transform="translate(623.23 86.00) scale(0.02400 -0.02400)"/><use href="#t-n" transform="translate(637.66 86.00) scale(0.02400 -0.02400)"/><use href="#t-g" transform="translate(652.06 86.00) scale(0.02400 -0.02400)"/><use href="#t-o" transform="translate(666.07 86.00) scale(0.02400 -0.02400)"/></g><g fill="#EEF1F5"><use href="#t-F" transform="translate(600.00 120.00) scale(0.02400 -0.02400)"/><use href="#t-a" transform="translate(613.85 120.00) scale(0.02400 -0.02400)"/><use href="#t-s" transform="translate(628.27 120.00) scale(0.02400 -0.02400)"/><use href="#t-t" transform="translate(640.27 120.00) scale(0.02400 -0.02400)"/><use href="#t-A" transform="translate(649.01 120.00) scale(0.02400 -0.02400)"/><use href="#t-P" transform="translate(665.71 120.00) scale(0.02400 -0.02400)"/><use href="#t-I" transform="translate(681.36 120.00) scale(0.02400 -0.02400)"/></g><g fill="#EEF1F5"><use href="#t-N" transform="translate(600.00 154.00) scale(0.02400 -0.02400)"/><use href="#t-o" transform="translate(618.29 154.00) scale(0.02400 -0.02400)"/><use href="#t-d" transform="translate(632.81 154.00) scale(0.02400 -0.02400)"/><use href="#t-e" transform="translate(647.23 154.00) scale(0.02400 -0.02400)"/><use href="#t-period" transform="translate(659.74 154.00) scale(0.02400 -0.02400)"/><use href="#t-j" transform="translate(664.10 154.00) scale(0.02400 -0.02400)"/><use href="#t-s" transform="translate(669.53 154.00) scale(0.02400 -0.02400)"/></g><g fill="#8C939D"><use href="#t-M" transform="translate(900.00 46.00) scale(0.01700 -0.01700)"/><use href="#t-a" transform="translate(915.22 46.00) scale(0.01700 -0.01700)"/><use href="#t-c" transform="translate(925.60 46.00) scale(0.01700 -0.01700)"/><use href="#t-h" transform="translate(935.17 46.00) scale(0.01700 -0.01700)"/><use href="#t-i" transform="translate(945.41 46.00) scale(0.01700 -0.01700)"/><use href="#t-n" transform="translate(949.42 46.00) scale(0.01700 -0.01700)"/><use href="#t-e" transform="translate(959.81 46.00) scale(0.01700 -0.01700)"/><use href="#t-l" transform="translate(972.86 46.00) scale(0.01700 -0.01700)"/><use href="#t-e" transform="translate(976.87 46.00) scale(0.01700 -0.01700)"/><use href="#t-a" transform="translate(986.14 46.00) scale(0.01700 -0.01700)"/><use href="#t-r" transform="translate(996.53 46.00) scale(0.01700 -0.01700)"/><use href="#t-n" transform="translate(1002.80 46.00) scale(0.01700 -0.01700)"/><use href="#t-i" transform="translate(1013.03 46.00) scale(0.01700 -0.01700)"/><use href="#t-n" transform="translate(1017.05 46.00) scale(0.01700 -0.01700)"/><use href="#t-g" transform="translate(1027.41 46.00) scale(0.01700 -0.01700)"/></g><g fill="#EEF1F5"><use href="#t-P" transform="translate(900.00 86.00) scale(0.02400 -0.02400)"/><use href="#t-y" transform="translate(915.94 86.00) scale(0.02400 -0.02400)"/><use href="#t-T" transform="translate(926.52 86.00) scale(0.02400 -0.02400)"/><use href="#t-o" transform="translate(938.23 86.00) scale(0.02400 -0.02400)"/><use href="#t-r" transform="translate(952.27 86.00) scale(0.02400 -0.02400)"/><use href="#t-c" transform="translate(960.29 86.00) scale(0.02400 -0.02400)"/><use href="#t-h" transform="translate(973.56 86.00) scale(0.02400 -0.02400)"/></g><g fill="#EEF1F5"><use href="#t-T" transform="translate(900.00 120.00) scale(0.02400 -0.02400)"/><use href="#t-e" transform="translate(911.69 120.00) scale(0.02400 -0.02400)"/><use href="#t-n" transform="translate(924.36 120.00) scale(0.02400 -0.02400)"/><use href="#t-s" transform="translate(938.57 120.00) scale(0.02400 -0.02400)"/><use href="#t-o" transform="translate(950.74 120.00) scale(0.02400 -0.02400)"/><use href="#t-r" transform="translate(964.78 120.00) scale(0.02400 -0.02400)"/><use href="#t-F" transform="translate(973.39 120.00) scale(0.02400 -0.02400)"/><use href="#t-l" transform="translate(987.60 120.00) scale(0.02400 -0.02400)"/><use href="#t-o" transform="translate(993.02 120.00) scale(0.02400 -0.02400)"/><use href="#t-w" transform="translate(1007.04 120.00) scale(0.02400 -0.02400)"/></g><g fill="#8C939D"><use href="#t-F" transform="translate(300.00 258.00) scale(0.01700 -0.01700)"/><use href="#t-r" transform="translate(309.84 258.00) scale(0.01700 -0.01700)"/><use href="#t-o" transform="translate(315.69 258.00) scale(0.01700 -0.01700)"/><use href="#t-n" transform="translate(325.81 258.00) scale(0.01700 -0.01700)"/><use href="#t-t" transform="translate(335.89 258.00) scale(0.01700 -0.01700)"/><use href="#t-e" transform="translate(341.82 258.00) scale(0.01700 -0.01700)"/><use href="#t-n" transform="translate(350.97 258.00) scale(0.01700 -0.01700)"/><use href="#t-d" transform="translate(361.32 258.00) scale(0.01700 -0.01700)"/></g><g fill="#EEF1F5"><use href="#t-R" transform="translate(300.00 298.00) scale(0.02400 -0.02400)"/><use href="#t-e" transform="translate(316.75 298.00) scale(0.02400 -0.02400)"/><use href="#t-a" transform="translate(329.59 298.00) scale(0.02400 -0.02400)"/><use href="#t-c" transform="translate(344.02 298.00) scale(0.02400 -0.02400)"/><use href="#t-t" transform="translate(357.24 298.00) scale(0.02400 -0.02400)"/></g><g fill="#EEF1F5"><use href="#t-N" transform="translate(300.00 332.00) scale(0.02400 -0.02400)"/><use href="#t-e" transform="translate(318.29 332.00) scale(0.02400 -0.02400)"/><use href="#t-x" transform="translate(330.65 332.00) scale(0.02400 -0.02400)"/><use href="#t-t" transform="translate(343.85 332.00) scale(0.02400 -0.02400)"/><use href="#t-period" transform="translate(352.66 332.00) scale(0.02400 -0.02400)"/><use href="#t-j" transform="translate(357.02 332.00) scale(0.02400 -0.02400)"/><use href="#t-s" transform="translate(362.45 332.00) scale(0.02400 -0.02400)"/></g><g fill="#EEF1F5"><use href="#t-T" transform="translate(300.00 366.00) scale(0.02400 -0.02400)"/><use href="#t-a" transform="translate(311.81 366.00) scale(0.02400 -0.02400)"/><use href="#t-i" transform="translate(326.23 366.00) scale(0.02400 -0.02400)"/><use href="#t-l" transform="translate(331.66 366.00) scale(0.02400 -0.02400)"/><use href="#t-w" transform="translate(337.08 366.00) scale(0.02400 -0.02400)"/><use href="#t-i" transform="translate(354.05 366.00) scale(0.02400 -0.02400)"/><use href="#t-n" transform="translate(359.47 366.00) scale(0.02400 -0.02400)"/><use href="#t-d" transform="translate(373.85 366.00) scale(0.02400 -0.02400)"/><use href="#t-C" transform="translate(393.50 366.00) scale(0.02400 -0.02400)"/><use href="#t-S" transform="translate(412.30 366.00) scale(0.02400 -0.02400)"/><use href="#t-S" transform="translate(428.18 366.00) scale(0.02400 -0.02400)"/></g><g fill="#8C939D"><use href="#t-D" transform="translate(600.00 258.00) scale(0.01700 -0.01700)"/><use href="#t-a" transform="translate(613.06 258.00) scale(0.01700 -0.01700)"/><use href="#t-t" transform="translate(623.44 258.00) scale(0.01700 -0.01700)"/><use href="#t-a" transform="translate(629.39 258.00) scale(0.01700 -0.01700)"/><use href="#t-ampersand" transform="translate(643.66 258.00) scale(0.01700 -0.01700)"/><use href="#t-m" transform="translate(660.81 258.00) scale(0.01700 -0.01700)"/><use href="#t-e" transform="translate(677.33 258.00) scale(0.01700 -0.01700)"/><use href="#t-s" transform="translate(686.63 258.00) scale(0.01700 -0.01700)"/><use href="#t-s" transform="translate(695.54 258.00) scale(0.01700 -0.01700)"/><use href="#t-a" transform="translate(704.35 258.00) scale(0.01700 -0.01700)"/><use href="#t-g" transform="translate(714.73 258.00) scale(0.01700 -0.01700)"/><use href="#t-i" transform="translate(724.83 258.00) scale(0.01700 -0.01700)"/><use href="#t-n" transform="translate(728.84 258.00) scale(0.01700 -0.01700)"/><use href="#t-g" transform="translate(739.21 258.00) scale(0.01700 -0.01700)"/></g><g fill="#EEF1F5"><use href="#t-P" transform="translate(600.00 298.00) scale(0.02400 -0.02400)"/><use href="#t-o" transform="translate(615.50 298.00) scale(0.02400 -0.02400)"/><use href="#t-s" transform="translate(629.57 298.00) scale(0.02400 -0.02400)"/><use href="#t-t" transform="translate(641.57 298.00) scale(0.02400 -0.02400)"/><use href="#t-g" transform="translate(649.92 298.00) scale(0.02400 -0.02400)"/><use href="#t-r" transform="translate(663.94 298.00) scale(0.02400 -0.02400)"/><use href="#t-e" transform="translate(671.95 298.00) scale(0.02400 -0.02400)"/><use href="#t-S" transform="translate(684.72 298.00) scale(0.02400 -0.02400)"/><use href="#t-Q" transform="translate(700.37 298.00) scale(0.02400 -0.02400)"/><use href="#t-L" transform="translate(720.10 298.00) scale(0.02400 -0.02400)"/></g><g fill="#EEF1F5"><use href="#t-R" transform="translate(600.00 332.00) scale(0.02400 -0.02400)"/><use href="#t-e" transform="translate(616.75 332.00) scale(0.02400 -0.02400)"/><use href="#t-d" transform="translate(629.59 332.00) scale(0.02400 -0.02400)"/><use href="#t-i" transform="translate(644.02 332.00) scale(0.02400 -0.02400)"/><use href="#t-s" transform="translate(649.44 332.00) scale(0.02400 -0.02400)"/></g><g fill="#EEF1F5"><use href="#t-R" transform="translate(600.00 366.00) scale(0.02400 -0.02400)"/><use href="#t-a" transform="translate(616.75 366.00) scale(0.02400 -0.02400)"/><use href="#t-b" transform="translate(631.18 366.00) scale(0.02400 -0.02400)"/><use href="#t-b" transform="translate(645.60 366.00) scale(0.02400 -0.02400)"/><use href="#t-i" transform="translate(660.02 366.00) scale(0.02400 -0.02400)"/><use href="#t-t" transform="translate(665.45 366.00) scale(0.02400 -0.02400)"/><use href="#t-M" transform="translate(673.90 366.00) scale(0.02400 -0.02400)"/><use href="#t-Q" transform="translate(695.14 366.00) scale(0.02400 -0.02400)"/></g><g fill="#8C939D"><use href="#t-C" transform="translate(900.00 258.00) scale(0.01700 -0.01700)"/><use href="#t-l" transform="translate(913.16 258.00) scale(0.01700 -0.01700)"/><use href="#t-o" transform="translate(917.17 258.00) scale(0.01700 -0.01700)"/><use href="#t-u" transform="translate(927.44 258.00) scale(0.01700 -0.01700)"/><use href="#t-d" transform="translate(937.69 258.00) scale(0.01700 -0.01700)"/><use href="#t-ampersand" transform="translate(951.95 258.00) scale(0.01700 -0.01700)"/><use href="#t-D" transform="translate(969.11 258.00) scale(0.01700 -0.01700)"/><use href="#t-e" transform="translate(982.14 258.00) scale(0.01700 -0.01700)"/><use href="#t-v" transform="translate(991.24 258.00) scale(0.01700 -0.01700)"/><use href="#t-O" transform="translate(1000.40 258.00) scale(0.01700 -0.01700)"/><use href="#t-p" transform="translate(1014.21 258.00) scale(0.01700 -0.01700)"/><use href="#t-s" transform="translate(1024.64 258.00) scale(0.01700 -0.01700)"/></g><g fill="#EEF1F5"><use href="#t-A" transform="translate(900.00 298.00) scale(0.02400 -0.02400)"/><use href="#t-W" transform="translate(915.05 298.00) scale(0.02400 -0.02400)"/><use href="#t-S" transform="translate(938.30 298.00) scale(0.02400 -0.02400)"/></g><g fill="#EEF1F5"><use href="#t-D" transform="translate(900.00 332.00) scale(0.02400 -0.02400)"/><use href="#t-o" transform="translate(918.17 332.00) scale(0.02400 -0.02400)"/><use href="#t-c" transform="translate(932.71 332.00) scale(0.02400 -0.02400)"/><use href="#t-k" transform="translate(945.98 332.00) scale(0.02400 -0.02400)"/><use href="#t-e" transform="translate(958.61 332.00) scale(0.02400 -0.02400)"/><use href="#t-r" transform="translate(971.28 332.00) scale(0.02400 -0.02400)"/></g><g fill="#EEF1F5"><use href="#t-G" transform="translate(900.00 366.00) scale(0.02400 -0.02400)"/><use href="#t-i" transform="translate(919.27 366.00) scale(0.02400 -0.02400)"/><use href="#t-t" transform="translate(924.70 366.00) scale(0.02400 -0.02400)"/><use href="#t-H" transform="translate(933.14 366.00) scale(0.02400 -0.02400)"/><use href="#t-u" transform="translate(951.62 366.00) scale(0.02400 -0.02400)"/><use href="#t-b" transform="translate(965.86 366.00) scale(0.02400 -0.02400)"/><use href="#t-A" transform="translate(985.51 366.00) scale(0.02400 -0.02400)"/><use href="#t-c" transform="translate(1002.10 366.00) scale(0.02400 -0.02400)"/><use href="#t-t_i_liga" transform="translate(1015.32 366.00) scale(0.02400 -0.02400)"/><use href="#t-o" transform="translate(1029.36 366.00) scale(0.02400 -0.02400)"/><use href="#t-n" transform="translate(1043.40 366.00) scale(0.02400 -0.02400)"/><use href="#t-s" transform="translate(1057.61 366.00) scale(0.02400 -0.02400)"/></g><g fill="#EEF1F5"><use href="#t-L" transform="translate(900.00 400.00) scale(0.02400 -0.02400)"/><use href="#t-i" transform="translate(912.82 400.00) scale(0.02400 -0.02400)"/><use href="#t-n" transform="translate(918.24 400.00) scale(0.02400 -0.02400)"/><use href="#t-u" transform="translate(932.45 400.00) scale(0.02400 -0.02400)"/><use href="#t-x" transform="translate(946.68 400.00) scale(0.02400 -0.02400)"/></g><g fill="#8C939D"><use href="#t-O" transform="translate(300.00 470.00) scale(0.01700 -0.01700)"/><use href="#t-b" transform="translate(313.82 470.00) scale(0.01700 -0.01700)"/><use href="#t-s" transform="translate(324.26 470.00) scale(0.01700 -0.01700)"/><use href="#t-e" transform="translate(333.05 470.00) scale(0.01700 -0.01700)"/><use href="#t-r" transform="translate(342.19 470.00) scale(0.01700 -0.01700)"/><use href="#t-v" transform="translate(348.60 470.00) scale(0.01700 -0.01700)"/><use href="#t-a" transform="translate(357.44 470.00) scale(0.01700 -0.01700)"/><use href="#t-b" transform="translate(367.83 470.00) scale(0.01700 -0.01700)"/><use href="#t-i" transform="translate(378.22 470.00) scale(0.01700 -0.01700)"/><use href="#t-l" transform="translate(382.23 470.00) scale(0.01700 -0.01700)"/><use href="#t-i" transform="translate(386.24 470.00) scale(0.01700 -0.01700)"/><use href="#t-t" transform="translate(390.25 470.00) scale(0.01700 -0.01700)"/><use href="#t-y" transform="translate(396.51 470.00) scale(0.01700 -0.01700)"/></g><g fill="#EEF1F5"><use href="#t-S" transform="translate(300.00 510.00) scale(0.02400 -0.02400)"/><use href="#t-e" transform="translate(315.72 510.00) scale(0.02400 -0.02400)"/><use href="#t-n" transform="translate(328.39 510.00) scale(0.02400 -0.02400)"/><use href="#t-t" transform="translate(342.38 510.00) scale(0.02400 -0.02400)"/><use href="#t-r" transform="translate(350.83 510.00) scale(0.02400 -0.02400)"/><use href="#t-y" transform="translate(359.64 510.00) scale(0.02400 -0.02400)"/></g><g fill="#EEF1F5"><use href="#t-P" transform="translate(300.00 544.00) scale(0.02400 -0.02400)"/><use href="#t-r" transform="translate(315.55 544.00) scale(0.02400 -0.02400)"/><use href="#t-o" transform="translate(323.57 544.00) scale(0.02400 -0.02400)"/><use href="#t-m" transform="translate(337.61 544.00) scale(0.02400 -0.02400)"/><use href="#t-e" transform="translate(360.70 544.00) scale(0.02400 -0.02400)"/><use href="#t-t" transform="translate(373.32 544.00) scale(0.02400 -0.02400)"/><use href="#t-h" transform="translate(381.77 544.00) scale(0.02400 -0.02400)"/><use href="#t-e" transform="translate(396.19 544.00) scale(0.02400 -0.02400)"/><use href="#t-u" transform="translate(408.91 544.00) scale(0.02400 -0.02400)"/><use href="#t-s" transform="translate(423.14 544.00) scale(0.02400 -0.02400)"/></g><g fill="#8C939D"><use href="#t-W" transform="translate(600.00 470.00) scale(0.01700 -0.01700)"/><use href="#t-o" transform="translate(616.17 470.00) scale(0.01700 -0.01700)"/><use href="#t-r" transform="translate(626.28 470.00) scale(0.01700 -0.01700)"/><use href="#t-k" transform="translate(632.56 470.00) scale(0.01700 -0.01700)"/><use href="#t-fl" transform="translate(642.14 470.00) scale(0.01700 -0.01700)"/><use href="#t-o" transform="translate(651.54 470.00) scale(0.01700 -0.01700)"/><use href="#t-w" transform="translate(661.64 470.00) scale(0.01700 -0.01700)"/></g><g fill="#EEF1F5"><use href="#t-G" transform="translate(600.00 510.00) scale(0.02400 -0.02400)"/><use href="#t-i" transform="translate(619.27 510.00) scale(0.02400 -0.02400)"/><use href="#t-t" transform="translate(624.70 510.00) scale(0.02400 -0.02400)"/></g><g fill="#EEF1F5"><use href="#t-G" transform="translate(600.00 544.00) scale(0.02400 -0.02400)"/><use href="#t-i" transform="translate(619.27 544.00) scale(0.02400 -0.02400)"/><use href="#t-t" transform="translate(624.70 544.00) scale(0.02400 -0.02400)"/><use href="#t-H" transform="translate(633.14 544.00) scale(0.02400 -0.02400)"/><use href="#t-u" transform="translate(651.62 544.00) scale(0.02400 -0.02400)"/><use href="#t-b" transform="translate(665.86 544.00) scale(0.02400 -0.02400)"/></g><g fill="#EEF1F5"><use href="#t-G" transform="translate(600.00 578.00) scale(0.02400 -0.02400)"/><use href="#t-i" transform="translate(619.27 578.00) scale(0.02400 -0.02400)"/><use href="#t-t" transform="translate(624.70 578.00) scale(0.02400 -0.02400)"/><use href="#t-L" transform="translate(633.14 578.00) scale(0.02400 -0.02400)"/><use href="#t-a" transform="translate(645.55 578.00) scale(0.02400 -0.02400)"/><use href="#t-b" transform="translate(659.98 578.00) scale(0.02400 -0.02400)"/></g><g fill="#EEF1F5"><use href="#t-P" transform="translate(600.00 612.00) scale(0.02400 -0.02400)"/><use href="#t-o" transform="translate(615.50 612.00) scale(0.02400 -0.02400)"/><use href="#t-s" transform="translate(629.57 612.00) scale(0.02400 -0.02400)"/><use href="#t-t" transform="translate(641.57 612.00) scale(0.02400 -0.02400)"/><use href="#t-m" transform="translate(650.02 612.00) scale(0.02400 -0.02400)"/><use href="#t-a" transform="translate(673.06 612.00) scale(0.02400 -0.02400)"/><use href="#t-n" transform="translate(687.48 612.00) scale(0.02400 -0.02400)"/></g><g fill="#8C939D"><use href="#t-E" transform="translate(900.00 470.00) scale(0.01700 -0.01700)"/><use href="#t-d" transform="translate(910.27 470.00) scale(0.01700 -0.01700)"/><use href="#t-i" transform="translate(920.65 470.00) scale(0.01700 -0.01700)"/><use href="#t-t" transform="translate(924.67 470.00) scale(0.01700 -0.01700)"/><use href="#t-o" transform="translate(930.60 470.00) scale(0.01700 -0.01700)"/><use href="#t-r" transform="translate(940.71 470.00) scale(0.01700 -0.01700)"/><use href="#t-s" transform="translate(946.77 470.00) scale(0.01700 -0.01700)"/><use href="#t-ampersand" transform="translate(959.33 470.00) scale(0.01700 -0.01700)"/><use href="#t-n" transform="translate(976.48 470.00) scale(0.01700 -0.01700)"/><use href="#t-o" transform="translate(986.87 470.00) scale(0.01700 -0.01700)"/><use href="#t-t" transform="translate(996.90 470.00) scale(0.01700 -0.01700)"/><use href="#t-e" transform="translate(1002.83 470.00) scale(0.01700 -0.01700)"/><use href="#t-s" transform="translate(1012.13 470.00) scale(0.01700 -0.01700)"/></g><g fill="#EEF1F5"><use href="#t-P" transform="translate(900.00 510.00) scale(0.02400 -0.02400)"/><use href="#t-y" transform="translate(915.94 510.00) scale(0.02400 -0.02400)"/><use href="#t-C" transform="translate(928.61 510.00) scale(0.02400 -0.02400)"/><use href="#t-h" transform="translate(946.94 510.00) scale(0.02400 -0.02400)"/><use href="#t-a" transform="translate(961.32 510.00) scale(0.02400 -0.02400)"/><use href="#t-r" transform="translate(975.74 510.00) scale(0.02400 -0.02400)"/><use href="#t-m" transform="translate(984.36 510.00) scale(0.02400 -0.02400)"/></g><g fill="#EEF1F5"><use href="#t-W" transform="translate(900.00 544.00) scale(0.02400 -0.02400)"/><use href="#t-e" transform="translate(922.58 544.00) scale(0.02400 -0.02400)"/><use href="#t-b" transform="translate(935.26 544.00) scale(0.02400 -0.02400)"/><use href="#t-S" transform="translate(949.75 544.00) scale(0.02400 -0.02400)"/><use href="#t-t" transform="translate(965.06 544.00) scale(0.02400 -0.02400)"/><use href="#t-o" transform="translate(973.20 544.00) scale(0.02400 -0.02400)"/><use href="#t-r" transform="translate(987.24 544.00) scale(0.02400 -0.02400)"/><use href="#t-m" transform="translate(995.86 544.00) scale(0.02400 -0.02400)"/></g><g fill="#EEF1F5"><use href="#t-N" transform="translate(900.00 578.00) scale(0.02400 -0.02400)"/><use href="#t-o" transform="translate(918.29 578.00) scale(0.02400 -0.02400)"/><use href="#t-t_i_liga" transform="translate(932.21 578.00) scale(0.02400 -0.02400)"/><use href="#t-o" transform="translate(946.25 578.00) scale(0.02400 -0.02400)"/><use href="#t-n" transform="translate(960.29 578.00) scale(0.02400 -0.02400)"/></g></svg>